<svg width="309" height="103" viewBox="0 0 309 103" fill="none" xmlns="http://www.w3.org/2000/svg">
<path d="M28.7402 79.9922C28.5254 81.3984 28.0371 82.6191 27.2754 83.6543C26.5332 84.709 25.625 85.5684 24.5508 86.2324C23.4961 86.916 22.3242 87.4238 21.0352 87.7559C19.7656 88.0879 18.4863 88.2539 17.1973 88.2539C16.2793 88.2539 15.332 88.1367 14.3555 87.9023C13.3789 87.668 12.3926 87.4141 11.3965 87.1406C10.4199 86.8672 9.45312 86.6133 8.49609 86.3789C7.55859 86.1445 6.66016 86.0273 5.80078 86.0273C5.39062 86.0273 4.95117 86.0762 4.48242 86.1738C4.0332 86.2715 3.58398 86.4082 3.13477 86.584C2.70508 86.7598 2.30469 86.9746 1.93359 87.2285C1.5625 87.502 1.26953 87.8047 1.05469 88.1367L0.585938 87.9023C0.664062 87.082 0.869141 86.3301 1.20117 85.6465C1.55273 84.9629 1.99219 84.3672 2.51953 83.8594C3.06641 83.3516 3.68164 82.9512 4.36523 82.6582C5.06836 82.3848 5.83008 82.248 6.65039 82.248C6.8457 82.248 7.03125 82.248 7.20703 82.248C7.40234 82.248 7.59766 82.2578 7.79297 82.2773C6.97266 80.3242 6.28906 78.1855 5.74219 75.8613C5.21484 73.5176 4.79492 71.1348 4.48242 68.7129C4.16992 66.2715 3.94531 63.8496 3.80859 61.4473C3.69141 59.0449 3.63281 56.7988 3.63281 54.709C3.63281 54.0059 3.64258 53.1855 3.66211 52.248C3.70117 51.3105 3.76953 50.3242 3.86719 49.2891C3.96484 48.2344 4.10156 47.1797 4.27734 46.125C4.47266 45.0703 4.73633 44.0742 5.06836 43.1367C5.40039 42.1992 5.81055 41.3594 6.29883 40.6172C6.78711 39.875 7.38281 39.2988 8.08594 38.8887C8.45703 38.6738 8.83789 38.4785 9.22852 38.3027C9.63867 38.127 10.0586 38.0391 10.4883 38.0391C10.7617 38.0391 10.9961 38.1074 11.1914 38.2441C11.4062 38.3613 11.5137 38.5762 11.5137 38.8887C11.5137 39.0645 11.4844 39.2305 11.4258 39.3867C11.3867 39.5234 11.3379 39.6699 11.2793 39.8262C10.9668 40.5293 10.6445 41.2129 10.3125 41.877C10 42.541 9.73633 43.2246 9.52148 43.9277C9.01367 45.627 8.59375 47.4727 8.26172 49.4648C7.94922 51.457 7.71484 53.5371 7.55859 55.7051C7.40234 57.873 7.31445 60.1094 7.29492 62.4141C7.27539 64.6992 7.31445 66.9844 7.41211 69.2695C7.5293 71.5352 7.68555 73.7812 7.88086 76.0078C8.07617 78.2148 8.31055 80.334 8.58398 82.3652C9.4043 82.4824 10.2344 82.6289 11.0742 82.8047C11.9336 83 12.793 83.1855 13.6523 83.3613C14.5312 83.5566 15.4199 83.7227 16.3184 83.8594C17.2168 83.9961 18.1348 84.0645 19.0723 84.0645C19.9512 84.0645 20.8301 83.9863 21.709 83.8301C22.6074 83.6934 23.457 83.459 24.2578 83.127C25.0781 82.7949 25.8301 82.3555 26.5137 81.8086C27.1973 81.2617 27.7734 80.5879 28.2422 79.7871L28.7402 79.9922ZM29.4727 54.3574C29.4727 54.748 29.3848 55.1387 29.209 55.5293C29.0332 55.9199 28.7988 56.2715 28.5059 56.584C28.2324 56.877 27.9102 57.1211 27.5391 57.3164C27.168 57.5117 26.7871 57.6094 26.3965 57.6094C25.8887 57.6094 25.4785 57.4434 25.166 57.1113C24.873 56.7793 24.7266 56.3594 24.7266 55.8516C24.7266 55.4609 24.8145 55.0801 24.9902 54.709C25.166 54.3184 25.3906 53.9766 25.6641 53.6836C25.957 53.3906 26.2793 53.1562 26.6309 52.9805C27.002 52.7852 27.3828 52.6875 27.7734 52.6875C28.2812 52.6875 28.6914 52.8438 29.0039 53.1562C29.3164 53.4688 29.4727 53.8691 29.4727 54.3574ZM37.6758 73.8105C37.2266 74.5527 36.6895 75.2363 36.0645 75.8613C35.459 76.4668 34.7852 77.0039 34.043 77.4727C33.3203 77.9219 32.5391 78.2734 31.6992 78.5273C30.8789 78.7812 30.0293 78.9082 29.1504 78.9082C28.0566 78.9082 27.0801 78.7227 26.2207 78.3516C25.3809 77.9805 24.668 77.4727 24.082 76.8281C23.5156 76.1641 23.0762 75.3926 22.7637 74.5137C22.4707 73.6152 22.3242 72.6387 22.3242 71.584C22.3242 70.4512 22.4902 69.377 22.8223 68.3613C23.1543 67.3457 23.6133 66.3984 24.1992 65.5195C24.7852 64.6211 25.4688 63.8008 26.25 63.0586C27.0508 62.3164 27.9004 61.6523 28.7988 61.0664L29.1504 61.3301C28.1934 62.4629 27.4121 63.7324 26.8066 65.1387C26.2207 66.5449 25.9277 68.0098 25.9277 69.5332C25.9277 70.4121 26.0254 71.2617 26.2207 72.082C26.4355 72.8828 26.7578 73.5957 27.1875 74.2207C27.6367 74.8457 28.2031 75.3438 28.8867 75.7148C29.5703 76.0859 30.4004 76.2715 31.377 76.2715C32.5293 76.2715 33.623 76.0273 34.6582 75.5391C35.7129 75.0508 36.6602 74.4355 37.5 73.6934L37.6758 73.8105ZM51.8262 86.9941C51.8262 88.5762 51.6406 90.1875 51.2695 91.8281C50.8984 93.4883 50.3125 95.0117 49.5117 96.3984C48.7109 97.7852 47.6758 98.957 46.4062 99.9141C45.1562 100.871 43.6426 101.467 41.8652 101.701C41.6895 101.74 41.5234 101.77 41.3672 101.789C41.2109 101.809 41.0352 101.818 40.8398 101.818C39.7656 101.818 38.75 101.604 37.793 101.174C36.8359 100.744 35.9961 100.158 35.2734 99.416C34.5703 98.6934 34.0137 97.8438 33.6035 96.8672C33.1934 95.9102 32.9883 94.9043 32.9883 93.8496C32.9883 92.6777 33.2324 91.5547 33.7207 90.4805C34.1895 89.4062 34.8145 88.4102 35.5957 87.4922C36.377 86.5938 37.2559 85.793 38.2324 85.0898C39.2285 84.4062 40.2441 83.8594 41.2793 83.4492L41.4551 83.8301C39.5605 84.8457 38.0957 86.2422 37.0605 88.0195C36.0254 89.7969 35.5078 91.7598 35.5078 93.9082C35.5078 94.7871 35.625 95.6367 35.8594 96.457C36.1133 97.2969 36.4844 98.0293 36.9727 98.6543C37.4609 99.2793 38.0664 99.7773 38.7891 100.148C39.5312 100.539 40.3809 100.734 41.3379 100.734C42.6855 100.734 43.8086 100.383 44.707 99.6797C45.6055 98.9766 46.3184 98.0977 46.8457 97.043C47.3926 95.9883 47.7734 94.8359 47.9883 93.5859C48.2227 92.3555 48.3398 91.2031 48.3398 90.1289C48.3398 89.1914 48.2812 88.2734 48.1641 87.375C48.0469 86.4766 47.9199 85.5781 47.7832 84.6797C47.666 83.8008 47.5488 82.9121 47.4316 82.0137C47.3145 81.1152 47.2559 80.1973 47.2559 79.2598C47.2559 78.5957 47.2754 77.9121 47.3145 77.209C47.373 76.5059 47.4707 75.793 47.6074 75.0703C46.748 76.0859 45.752 76.9551 44.6191 77.6777C43.5059 78.3809 42.3047 78.7324 41.0156 78.7324C40.2148 78.7324 39.4922 78.5762 38.8477 78.2637C38.2227 77.9707 37.6855 77.5703 37.2363 77.0625C36.8066 76.5547 36.4746 75.959 36.2402 75.2754C36.0254 74.5723 35.918 73.8398 35.918 73.0781C35.918 72.1992 36.0547 71.291 36.3281 70.3535C36.6211 69.3965 37.0117 68.4785 37.5 67.5996C38.0078 66.7012 38.6035 65.8613 39.2871 65.0801C39.9707 64.2793 40.7129 63.5859 41.5137 63C42.334 62.3945 43.1934 61.9258 44.0918 61.5938C44.9902 61.2422 45.9082 61.0664 46.8457 61.0664C47.3145 61.0664 47.7832 61.1348 48.252 61.2715C48.7402 61.3887 49.1797 61.5742 49.5703 61.8281C49.9805 62.082 50.3027 62.4043 50.5371 62.7949C50.791 63.1855 50.918 63.6543 50.918 64.2012C50.918 64.5918 50.8301 64.9434 50.6543 65.2559C50.4785 65.5684 50.2539 65.8516 49.9805 66.1055C49.707 66.3398 49.4043 66.5547 49.0723 66.75C48.7402 66.9453 48.418 67.1113 48.1055 67.248L47.9883 66.8965C48.1445 66.7207 48.252 66.5059 48.3105 66.252C48.3691 65.998 48.3984 65.7539 48.3984 65.5195C48.3984 65.168 48.3398 64.8164 48.2227 64.4648C48.125 64.0938 47.9688 63.7617 47.7539 63.4688C47.5586 63.1562 47.3047 62.9023 46.9922 62.707C46.6797 62.5117 46.3281 62.4141 45.9375 62.4141C44.9414 62.4141 44.043 62.6875 43.2422 63.2344C42.4414 63.7617 41.7578 64.4355 41.1914 65.2559C40.6445 66.0762 40.2148 66.9746 39.9023 67.9512C39.6094 68.9082 39.4629 69.8164 39.4629 70.6758C39.4629 71.2422 39.5117 71.8184 39.6094 72.4043C39.7266 72.9902 39.9121 73.5176 40.166 73.9863C40.4199 74.4551 40.7617 74.8457 41.1914 75.1582C41.6406 75.4512 42.207 75.5977 42.8906 75.5977C43.9453 75.5977 44.9219 75.3242 45.8203 74.7773C46.7188 74.2109 47.5195 73.5469 48.2227 72.7852C48.4961 72.0039 48.8477 71.2715 49.2773 70.5879C49.7266 69.8848 50.2734 69.2793 50.918 68.7715L51.416 69.123C50.9668 69.8457 50.6738 70.666 50.5371 71.584C50.4004 72.502 50.332 73.4004 50.332 74.2793C50.332 75.3145 50.4102 76.3496 50.5664 77.3848C50.7227 78.4199 50.8887 79.4648 51.0645 80.5195C51.2598 81.5742 51.4355 82.6387 51.5918 83.7129C51.748 84.7871 51.8262 85.8809 51.8262 86.9941ZM79.9512 73.6934C79.6191 74.3965 79.209 75.0996 78.7207 75.8027C78.252 76.4863 77.7246 77.1113 77.1387 77.6777C76.5527 78.2246 75.9082 78.6738 75.2051 79.0254C74.502 79.377 73.75 79.5527 72.9492 79.5527C72.0703 79.5527 71.3086 79.3184 70.6641 78.8496C70.0195 78.4004 69.4727 77.8047 69.0234 77.0625C68.5742 76.3008 68.2031 75.4316 67.9102 74.4551C67.6172 73.4785 67.373 72.4727 67.1777 71.4375C66.9824 70.4023 66.8164 69.3672 66.6797 68.332C66.5625 67.2969 66.4453 66.3496 66.3281 65.4902C65.7031 66.3105 65.1367 67.1797 64.6289 68.0977C64.1211 69.0156 63.6328 69.9727 63.1641 70.9688C62.6953 71.9453 62.2363 72.9414 61.7871 73.957C61.3379 74.9727 60.8594 75.9785 60.3516 76.9746C60.2344 77.1895 60.1172 77.4238 60 77.6777C59.8828 77.9121 59.7461 78.127 59.5898 78.3223C59.4336 78.5371 59.248 78.7129 59.0332 78.8496C58.8184 78.9863 58.5645 79.0547 58.2715 79.0547C57.998 79.0547 57.7637 79.0059 57.5684 78.9082C57.3926 78.8105 57.2363 78.6836 57.0996 78.5273C56.9824 78.3906 56.8848 78.2344 56.8066 78.0586C56.748 77.8828 56.6992 77.7168 56.6602 77.5605C56.4258 76.7207 56.2109 75.666 56.0156 74.3965C55.8398 73.127 55.6836 71.7695 55.5469 70.3242C55.4102 68.8789 55.3027 67.4141 55.2246 65.9297C55.166 64.4258 55.1367 63.0391 55.1367 61.7695C55.1367 59.9531 55.2539 58.0879 55.4883 56.1738C55.7227 54.2402 56.084 52.3555 56.5723 50.5195C57.0801 48.6836 57.7148 46.9551 58.4766 45.334C59.2578 43.6934 60.1758 42.2578 61.2305 41.0273C62.2852 39.7969 63.4863 38.8203 64.834 38.0977C66.2012 37.375 67.7246 37.0137 69.4043 37.0137C70.5176 37.0137 71.3965 37.3457 72.041 38.0098C72.6855 38.6543 73.0078 39.582 73.0078 40.793C73.0078 42.6094 72.6855 44.3574 72.041 46.0371C71.416 47.6973 70.6055 49.2891 69.6094 50.8125C68.6328 52.3359 67.5391 53.7812 66.3281 55.1484C65.1367 56.4961 63.9844 57.7461 62.8711 58.8984L62.4902 58.6055C62.9785 58.0586 63.4961 57.3848 64.043 56.584C64.6094 55.7637 65.1562 54.8848 65.6836 53.9473C66.2305 52.9902 66.748 51.9941 67.2363 50.959C67.7246 49.9043 68.1543 48.8691 68.5254 47.8535C68.8965 46.8379 69.1895 45.8613 69.4043 44.9238C69.6191 43.9668 69.7266 43.0977 69.7266 42.3164C69.7266 41.9062 69.6875 41.5156 69.6094 41.1445C69.5312 40.7734 69.3945 40.4512 69.1992 40.1777C69.0039 39.8848 68.75 39.6602 68.4375 39.5039C68.1445 39.3281 67.7832 39.2402 67.3535 39.2402C66.4941 39.2402 65.6836 39.5723 64.9219 40.2363C64.1797 40.9004 63.4961 41.7988 62.8711 42.9316C62.2461 44.0449 61.6895 45.3438 61.2012 46.8281C60.7324 48.3125 60.3223 49.8652 59.9707 51.4863C59.6387 53.1074 59.3848 54.748 59.209 56.4082C59.0332 58.0684 58.9453 59.6504 58.9453 61.1543C58.9453 62.1699 58.9453 63.1953 58.9453 64.2305C58.9453 65.2656 58.9648 66.3496 59.0039 67.4824C59.0625 68.6152 59.1504 69.8164 59.2676 71.0859C59.4043 72.3555 59.5898 73.7324 59.8242 75.2168C60.6836 72.9902 61.5918 70.8125 62.5488 68.6836C63.5059 66.5352 64.541 64.5723 65.6543 62.7949C65.8105 62.541 65.9668 62.2871 66.123 62.0332C66.2988 61.7793 66.4844 61.5547 66.6797 61.3594C66.875 61.1445 67.0898 60.9688 67.3242 60.832C67.5586 60.6953 67.8125 60.627 68.0859 60.627C68.418 60.627 68.6816 60.7246 68.877 60.9199C69.0723 61.0957 69.2285 61.3203 69.3457 61.5938C69.4629 61.8672 69.541 62.1602 69.5801 62.4727C69.6387 62.7852 69.6875 63.0684 69.7266 63.3223C69.8047 63.8887 69.8926 64.6211 69.9902 65.5195C70.0879 66.418 70.2051 67.3848 70.3418 68.4199C70.4785 69.4355 70.6445 70.4609 70.8398 71.4961C71.0547 72.5312 71.3184 73.4688 71.6309 74.3086C71.9629 75.1289 72.3535 75.8027 72.8027 76.3301C73.252 76.8574 73.7891 77.1211 74.4141 77.1211C74.9219 77.1211 75.4297 77.0137 75.9375 76.7988C76.4453 76.584 76.9336 76.3105 77.4023 75.9785C77.8711 75.6465 78.3008 75.2656 78.6914 74.8359C79.1016 74.4062 79.4434 73.9863 79.7168 73.5762L79.9512 73.6934ZM97.9102 73.8105C97.4805 74.5332 96.9727 75.207 96.3867 75.832C95.8203 76.457 95.1855 77.0039 94.4824 77.4727C93.7988 77.9414 93.0566 78.3027 92.2559 78.5566C91.4551 78.8301 90.625 78.9668 89.7656 78.9668C88.4961 78.9668 87.373 78.752 86.3965 78.3223C85.4395 77.8926 84.6094 77.3164 83.9062 76.5938C83.2031 75.8516 82.6172 74.9922 82.1484 74.0156C81.6797 73.0391 81.3086 72.0234 81.0352 70.9688C80.7617 69.8945 80.5664 68.8008 80.4492 67.6875C80.332 66.5742 80.2734 65.5098 80.2734 64.4941C80.2734 63.5566 80.3125 62.5996 80.3906 61.623C80.4688 60.627 80.5859 59.6113 80.7422 58.5762C80.1367 58.5957 79.541 58.6055 78.9551 58.6055C78.3887 58.6055 77.8223 58.6055 77.2559 58.6055C76.8848 58.6055 76.4648 58.5957 75.9961 58.5762C75.5273 58.5566 75.0879 58.4785 74.6777 58.3418C74.2676 58.2051 73.9258 58 73.6523 57.7266C73.3789 57.4531 73.2422 57.0527 73.2422 56.5254C73.2422 56.2324 73.3008 55.998 73.418 55.8223C73.5156 55.6465 73.6621 55.5195 73.8574 55.4414C74.0332 55.3438 74.248 55.2852 74.502 55.2656C74.7363 55.2266 74.9805 55.207 75.2344 55.207C75.5273 55.207 76.2207 55.2559 77.3145 55.3535C78.4082 55.4512 79.7266 55.5586 81.2695 55.6758C81.7578 53.3711 82.3828 51.1055 83.1445 48.8789C83.9258 46.6523 84.8047 44.6211 85.7812 42.7852H86.1914C85.5664 44.9141 85.0098 47.0625 84.5215 49.2305C84.0527 51.3984 83.7012 53.5957 83.4668 55.8223C84.8926 55.9199 86.3574 56.0078 87.8613 56.0859C89.3848 56.1445 90.8691 56.1738 92.3145 56.1738C94.4434 56.1738 96.1719 56.1543 97.5 56.1152C98.8281 56.0762 99.873 56.0273 100.635 55.9688C101.533 55.8906 102.207 55.8125 102.656 55.7344L102.773 56.2324C101.602 56.5059 100.264 56.7695 98.7598 57.0234C97.2559 57.2578 95.6543 57.4727 93.9551 57.668C92.2559 57.8438 90.498 58 88.6816 58.1367C86.8652 58.2734 85.0586 58.3809 83.2617 58.459C83.2227 58.8496 83.2031 59.25 83.2031 59.6602C83.2031 60.0508 83.2031 60.4414 83.2031 60.832C83.2031 61.7695 83.2422 62.8047 83.3203 63.9375C83.418 65.0703 83.584 66.2129 83.8184 67.3652C84.0527 68.498 84.3652 69.6113 84.7559 70.7051C85.166 71.7793 85.6934 72.7363 86.3379 73.5762C87.002 74.3965 87.793 75.0605 88.7109 75.5684C89.6289 76.0762 90.7129 76.3301 91.9629 76.3301C93.1152 76.3301 94.1504 76.0762 95.0684 75.5684C96.0059 75.0605 96.8945 74.4355 97.7344 73.6934L97.9102 73.8105ZM117.246 54.3574C117.246 54.748 117.158 55.1387 116.982 55.5293C116.807 55.9199 116.572 56.2715 116.279 56.584C116.006 56.877 115.684 57.1211 115.312 57.3164C114.941 57.5117 114.561 57.6094 114.17 57.6094C113.662 57.6094 113.252 57.4434 112.939 57.1113C112.646 56.7793 112.5 56.3594 112.5 55.8516C112.5 55.4609 112.588 55.0801 112.764 54.709C112.939 54.3184 113.164 53.9766 113.438 53.6836C113.73 53.3906 114.053 53.1562 114.404 52.9805C114.775 52.7852 115.156 52.6875 115.547 52.6875C116.055 52.6875 116.465 52.8438 116.777 53.1562C117.09 53.4688 117.246 53.8691 117.246 54.3574ZM125.449 73.8105C125 74.5527 124.463 75.2363 123.838 75.8613C123.232 76.4668 122.559 77.0039 121.816 77.4727C121.094 77.9219 120.312 78.2734 119.473 78.5273C118.652 78.7812 117.803 78.9082 116.924 78.9082C115.83 78.9082 114.854 78.7227 113.994 78.3516C113.154 77.9805 112.441 77.4727 111.855 76.8281C111.289 76.1641 110.85 75.3926 110.537 74.5137C110.244 73.6152 110.098 72.6387 110.098 71.584C110.098 70.4512 110.264 69.377 110.596 68.3613C110.928 67.3457 111.387 66.3984 111.973 65.5195C112.559 64.6211 113.242 63.8008 114.023 63.0586C114.824 62.3164 115.674 61.6523 116.572 61.0664L116.924 61.3301C115.967 62.4629 115.186 63.7324 114.58 65.1387C113.994 66.5449 113.701 68.0098 113.701 69.5332C113.701 70.4121 113.799 71.2617 113.994 72.082C114.209 72.8828 114.531 73.5957 114.961 74.2207C115.41 74.8457 115.977 75.3438 116.66 75.7148C117.344 76.0859 118.174 76.2715 119.15 76.2715C120.303 76.2715 121.396 76.0273 122.432 75.5391C123.486 75.0508 124.434 74.4355 125.273 73.6934L125.449 73.8105ZM143.379 73.8105C142.949 74.5332 142.441 75.207 141.855 75.832C141.289 76.457 140.654 77.0039 139.951 77.4727C139.268 77.9414 138.525 78.3027 137.725 78.5566C136.924 78.8301 136.094 78.9668 135.234 78.9668C133.965 78.9668 132.842 78.752 131.865 78.3223C130.908 77.8926 130.078 77.3164 129.375 76.5938C128.672 75.8516 128.086 74.9922 127.617 74.0156C127.148 73.0391 126.777 72.0234 126.504 70.9688C126.23 69.8945 126.035 68.8008 125.918 67.6875C125.801 66.5742 125.742 65.5098 125.742 64.4941C125.742 63.5566 125.781 62.5996 125.859 61.623C125.938 60.627 126.055 59.6113 126.211 58.5762C125.605 58.5957 125.01 58.6055 124.424 58.6055C123.857 58.6055 123.291 58.6055 122.725 58.6055C122.354 58.6055 121.934 58.5957 121.465 58.5762C120.996 58.5566 120.557 58.4785 120.146 58.3418C119.736 58.2051 119.395 58 119.121 57.7266C118.848 57.4531 118.711 57.0527 118.711 56.5254C118.711 56.2324 118.77 55.998 118.887 55.8223C118.984 55.6465 119.131 55.5195 119.326 55.4414C119.502 55.3438 119.717 55.2852 119.971 55.2656C120.205 55.2266 120.449 55.207 120.703 55.207C120.996 55.207 121.689 55.2559 122.783 55.3535C123.877 55.4512 125.195 55.5586 126.738 55.6758C127.227 53.3711 127.852 51.1055 128.613 48.8789C129.395 46.6523 130.273 44.6211 131.25 42.7852H131.66C131.035 44.9141 130.479 47.0625 129.99 49.2305C129.521 51.3984 129.17 53.5957 128.936 55.8223C130.361 55.9199 131.826 56.0078 133.33 56.0859C134.854 56.1445 136.338 56.1738 137.783 56.1738C139.912 56.1738 141.641 56.1543 142.969 56.1152C144.297 56.0762 145.342 56.0273 146.104 55.9688C147.002 55.8906 147.676 55.8125 148.125 55.7344L148.242 56.2324C147.07 56.5059 145.732 56.7695 144.229 57.0234C142.725 57.2578 141.123 57.4727 139.424 57.668C137.725 57.8438 135.967 58 134.15 58.1367C132.334 58.2734 130.527 58.3809 128.73 58.459C128.691 58.8496 128.672 59.25 128.672 59.6602C128.672 60.0508 128.672 60.4414 128.672 60.832C128.672 61.7695 128.711 62.8047 128.789 63.9375C128.887 65.0703 129.053 66.2129 129.287 67.3652C129.521 68.498 129.834 69.6113 130.225 70.7051C130.635 71.7793 131.162 72.7363 131.807 73.5762C132.471 74.3965 133.262 75.0605 134.18 75.5684C135.098 76.0762 136.182 76.3301 137.432 76.3301C138.584 76.3301 139.619 76.0762 140.537 75.5684C141.475 75.0605 142.363 74.4355 143.203 73.6934L143.379 73.8105ZM179.355 73.8105C179.023 74.4941 178.574 75.1484 178.008 75.7734C177.441 76.3984 176.807 76.9648 176.104 77.4727C175.4 77.9609 174.658 78.3516 173.877 78.6445C173.096 78.9375 172.324 79.084 171.562 79.084C170.508 79.084 169.629 78.7617 168.926 78.1172C168.242 77.4922 167.734 76.7305 167.402 75.832C166.641 76.5938 165.801 77.2285 164.883 77.7363C163.965 78.2246 162.949 78.4688 161.836 78.4688C160.84 78.4688 159.951 78.293 159.17 77.9414C158.408 77.5703 157.773 77.0723 157.266 76.4473C156.758 75.8223 156.367 75.0996 156.094 74.2793C155.84 73.459 155.713 72.5801 155.713 71.6426C155.713 70.5879 155.859 69.5625 156.152 68.5664C156.445 67.5508 156.855 66.5938 157.383 65.6953C157.91 64.7773 158.535 63.9277 159.258 63.1465C159.98 62.3652 160.762 61.6719 161.602 61.0664L161.953 61.3301C161.133 62.502 160.479 63.8008 159.99 65.2266C159.502 66.6328 159.258 68.0684 159.258 69.5332C159.258 70.1582 159.326 70.8223 159.463 71.5254C159.6 72.2285 159.824 72.8828 160.137 73.4883C160.449 74.0938 160.859 74.6016 161.367 75.0117C161.895 75.4023 162.549 75.5977 163.33 75.5977C163.994 75.5977 164.629 75.4902 165.234 75.2754C165.84 75.041 166.426 74.7285 166.992 74.3379C166.953 74.1035 166.924 73.8789 166.904 73.6641C166.885 73.4297 166.875 73.1953 166.875 72.9609C166.875 72.0234 167.012 71.0078 167.285 69.9141C167.559 68.8203 167.92 67.7363 168.369 66.6621C168.818 65.5684 169.326 64.5332 169.893 63.5566C170.479 62.5605 171.074 61.7109 171.68 61.0078L172.031 61.2715C171.582 62.7754 171.211 64.3281 170.918 65.9297C170.625 67.5312 170.479 69.1133 170.479 70.6758C170.479 71.3789 170.518 72.0625 170.596 72.7266C170.693 73.3711 170.879 73.957 171.152 74.4844C171.445 74.9922 171.846 75.4023 172.354 75.7148C172.861 76.0078 173.535 76.1543 174.375 76.1543C175.312 76.1543 176.191 75.9199 177.012 75.4512C177.832 74.9629 178.555 74.377 179.18 73.6934L179.355 73.8105ZM196.406 67.6289C196.406 68.7227 196.191 69.8652 195.762 71.0566C195.352 72.2285 194.775 73.3027 194.033 74.2793C193.291 75.2559 192.402 76.0664 191.367 76.7109C190.352 77.3359 189.238 77.6484 188.027 77.6484C187.598 77.6484 187.158 77.5801 186.709 77.4434C186.279 77.2871 185.879 77.0723 185.508 76.7988C185.156 76.5059 184.863 76.1641 184.629 75.7734C184.414 75.3828 184.307 74.9434 184.307 74.4551C184.307 74.2207 184.404 74.0254 184.6 73.8691C184.795 73.6934 185.01 73.6055 185.244 73.6055C185.537 73.6055 185.781 73.752 185.977 74.0449C186.191 74.3379 186.416 74.6602 186.65 75.0117C186.904 75.3438 187.197 75.6562 187.529 75.9492C187.881 76.2422 188.34 76.3887 188.906 76.3887C189.609 76.3887 190.234 76.1543 190.781 75.6855C191.328 75.1973 191.787 74.6113 192.158 73.9277C192.529 73.2441 192.812 72.5215 193.008 71.7598C193.203 70.9785 193.301 70.2949 193.301 69.709C193.301 68.9668 193.203 68.2344 193.008 67.5117C192.812 66.7891 192.51 66.1543 192.1 65.6074C191.709 65.041 191.201 64.5918 190.576 64.2598C189.971 63.9082 189.258 63.7324 188.438 63.7324C187.48 63.7324 186.67 64.0547 186.006 64.6992C185.361 65.3438 184.824 66.1738 184.395 67.1895C183.984 68.1855 183.662 69.3086 183.428 70.5586C183.213 71.8086 183.047 73.0488 182.93 74.2793C182.832 75.4902 182.773 76.6133 182.754 77.6484C182.734 78.6836 182.725 79.5039 182.725 80.1094C182.725 82.9414 182.646 85.4902 182.49 87.7559C182.334 90.041 182.119 92.1016 181.846 93.9375C181.572 95.7734 181.25 97.3945 180.879 98.8008C180.508 100.227 180.107 101.496 179.678 102.609H178.945V88.6055C178.945 84.3281 178.867 80.0801 178.711 75.8613C178.555 71.623 178.477 67.3555 178.477 63.0586C178.477 62.6094 178.564 62.2383 178.74 61.9453C178.936 61.6328 179.18 61.3789 179.473 61.1836C179.785 60.9883 180.137 60.8516 180.527 60.7734C180.918 60.6953 181.318 60.6562 181.729 60.6562C181.846 60.6562 182.041 60.6855 182.314 60.7441C182.588 60.7832 182.725 60.8906 182.725 61.0664C182.725 62.4336 182.715 63.7812 182.695 65.1094C182.676 66.4375 182.646 67.7754 182.607 69.123C182.881 68.1855 183.232 67.2188 183.662 66.2227C184.092 65.207 184.619 64.2891 185.244 63.4688C185.869 62.6484 186.611 61.9746 187.471 61.4473C188.33 60.9199 189.336 60.6562 190.488 60.6562C191.465 60.6562 192.314 60.8516 193.037 61.2422C193.779 61.6328 194.395 62.1504 194.883 62.7949C195.391 63.4395 195.771 64.1816 196.025 65.0215C196.279 65.8613 196.406 66.7305 196.406 67.6289Z" fill="#FFA463"/>
<path d="M267.193 41.4262L261.945 52.0273L250.202 53.7327C248.096 54.037 247.253 56.6232 248.78 58.1044L257.275 66.3515L255.266 78.0014C254.904 80.1072 257.13 81.6845 258.995 80.6997L269.5 75.199L280.005 80.6997C281.87 81.6765 284.096 80.1072 283.734 78.0014L281.725 66.3515L290.22 58.1044C291.747 56.6232 290.904 54.037 288.798 53.7327L277.055 52.0273L271.807 41.4262C270.866 39.5366 268.142 39.5126 267.193 41.4262Z" fill="url(#paint0_linear_10_61)"/>
<path d="M239.837 7.04358L236.053 14.8004L227.588 16.0483C226.07 16.271 225.461 18.1633 226.562 19.2472L232.687 25.2816L231.238 33.8059C230.977 35.3467 232.582 36.5009 233.927 35.7803L241.5 31.7554L249.073 35.7803C250.418 36.495 252.023 35.3467 251.762 33.8059L250.313 25.2816L256.438 19.2472C257.539 18.1633 256.93 16.271 255.412 16.0483L246.947 14.8004L243.163 7.04358C242.485 5.66094 240.521 5.64337 239.837 7.04358Z" fill="url(#paint1_linear_10_61)"/>
<path d="M201.82 0.730508L199.135 6.16031L193.127 7.03383C192.049 7.18967 191.618 8.51431 192.399 9.27301L196.745 13.4971L195.717 19.4641C195.532 20.5427 196.671 21.3506 197.625 20.8462L203 18.0288L208.375 20.8462C209.329 21.3465 210.468 20.5427 210.283 19.4641L209.255 13.4971L213.601 9.27301C214.382 8.51431 213.951 7.18967 212.873 7.03383L206.865 6.16031L204.18 0.730508C203.699 -0.237341 202.305 -0.249644 201.82 0.730508Z" fill="url(#paint2_linear_10_61)"/>
<defs>
<linearGradient id="paint0_linear_10_61" x1="269.5" y1="40" x2="269.5" y2="81" gradientUnits="userSpaceOnUse">
<stop stop-color="#F9DA3C"/>
<stop offset="1" stop-color="#FB7D36" stop-opacity="0.41"/>
</linearGradient>
<linearGradient id="paint1_linear_10_61" x1="241.5" y1="6" x2="241.5" y2="36" gradientUnits="userSpaceOnUse">
<stop stop-color="#F9DA3C"/>
<stop offset="1" stop-color="#FB7D36" stop-opacity="0.41"/>
</linearGradient>
<linearGradient id="paint2_linear_10_61" x1="203" y1="0" x2="203" y2="21" gradientUnits="userSpaceOnUse">
<stop stop-color="#F9DA3C"/>
<stop offset="1" stop-color="#FB7D36" stop-opacity="0.41"/>
</linearGradient>
</defs>
</svg>
