<svg width="42" height="42" viewBox="0 0 42 42" fill="none" xmlns="http://www.w3.org/2000/svg">
<path d="M38.0625 34.125H3.9375C3.5894 34.125 3.25556 34.2633 3.00942 34.5094C2.76328 34.7556 2.625 35.0894 2.625 35.4375L2.625 38.0625C2.625 38.4106 2.76328 38.7444 3.00942 38.9906C3.25556 39.2367 3.5894 39.375 3.9375 39.375H38.0625C38.4106 39.375 38.7444 39.2367 38.9906 38.9906C39.2367 38.7444 39.375 38.4106 39.375 38.0625V35.4375C39.375 35.0894 39.2367 34.7556 38.9906 34.5094C38.7444 34.2633 38.4106 34.125 38.0625 34.125ZM38.0625 23.625H3.9375C3.5894 23.625 3.25556 23.7633 3.00942 24.0094C2.76328 24.2556 2.625 24.5894 2.625 24.9375L2.625 27.5625C2.625 27.9106 2.76328 28.2444 3.00942 28.4906C3.25556 28.7367 3.5894 28.875 3.9375 28.875H38.0625C38.4106 28.875 38.7444 28.7367 38.9906 28.4906C39.2367 28.2444 39.375 27.9106 39.375 27.5625V24.9375C39.375 24.5894 39.2367 24.2556 38.9906 24.0094C38.7444 23.7633 38.4106 23.625 38.0625 23.625ZM38.0625 13.125H3.9375C3.5894 13.125 3.25556 13.2633 3.00942 13.5094C2.76328 13.7556 2.625 14.0894 2.625 14.4375L2.625 17.0625C2.625 17.4106 2.76328 17.7444 3.00942 17.9906C3.25556 18.2367 3.5894 18.375 3.9375 18.375H38.0625C38.4106 18.375 38.7444 18.2367 38.9906 17.9906C39.2367 17.7444 39.375 17.4106 39.375 17.0625V14.4375C39.375 14.0894 39.2367 13.7556 38.9906 13.5094C38.7444 13.2633 38.4106 13.125 38.0625 13.125ZM38.0625 2.625H3.9375C3.5894 2.625 3.25556 2.76328 3.00942 3.00942C2.76328 3.25556 2.625 3.5894 2.625 3.9375L2.625 6.5625C2.625 6.9106 2.76328 7.24444 3.00942 7.49058C3.25556 7.73672 3.5894 7.875 3.9375 7.875H38.0625C38.4106 7.875 38.7444 7.73672 38.9906 7.49058C39.2367 7.24444 39.375 6.9106 39.375 6.5625V3.9375C39.375 3.5894 39.2367 3.25556 38.9906 3.00942C38.7444 2.76328 38.4106 2.625 38.0625 2.625Z" fill="#FFD89E"/>
</svg>
